P1
50 13
00000000000000000000000000000000000000000000000000
01010101010101010101010100000000000000000000000000
00101010101010101010101000000000000000000000000000
01010101010101010101010100000000000000000000000000
00101010101010101010101000000000000000000000000000
01010101010101010101010100000000000000000000000000
00101010101010101010101000000000000000000000000000
00000000000000000000000000000000000000000000000000
00000000000000000000000000000000000000000000000000
00000000000000000000000000000000000000000000000000
00000000000000000000000000000000000000000000000000
00000000000000000000000000000000000000000000000000
00000000000000000000000000000000000000000000000000
