P1
5 6
00000
01111
00000
01011
10101
11011

