P1
48 9
000000000000000000000000000000000000000000000000
001010101010101010101010101010101010101000100000
000000000000000000000000000000000000000000100000
000000111001001110000000000000000000000000100000
000001001001000100000000000000000000000000100000
000110001111000100000000000000000000000000100000
000000001001000100000000000000000000000000100000
000000001001001110000000000000000000000000100000
000000000000000000000000000000000000000000000000
