P2
10 9
# portable graymap representing a 10x9 invalid sudoku situation
9
1 2 3 4 5 6 7 8 9 1
4 5 6 7 8 9 1 2 3 1
7 8 9 1 2 3 4 5 6 1
2 3 4 5 6 7 8 9 1 1
5 6 7 8 9 1 2 3 4 1
8 9 1 2 3 4 5 6 7 1
3 4 5 6 7 8 9 1 2 1
6 7 8 9 1 2 3 4 5 1
9 1 2 3 4 5 6 7 8 1