P3
# yay
5 5
255
 255 200 255   255 200 200   255 255 200   200 255 200   200 200 255
 255 100 255   255 100 100   255 255 100   100 255 100   100 100 255
 255   0 255   255   0   0   255 255   0     0 255   0     0   0 255
 200   0 200   200   0   0   200 200   0     0 200   0     0   0 200
 100   0 100   100   0   0   100 100   0     0 100   0     0   0 100
 